<svg width="30" height="30" viewBox="0 0 30 30" fill="none" xmlns="http://www.w3.org/2000/svg">
<path d="M29.6313 14.8438C29.6313 6.875 23.0688 0.3125 15.1 0.3125C7.07266 0.3125 0.56875 6.875 0.56875 14.8438C0.56875 22.8711 7.07266 29.375 15.1 29.375C23.0688 29.375 29.6313 22.8711 29.6313 14.8438ZM13.4008 22.5781C13.0492 22.9297 12.4047 22.9297 12.0531 22.5781L5.95938 16.4844C5.60781 16.1328 5.60781 15.4883 5.95938 15.1367L7.30703 13.8477C7.65859 13.4375 8.24453 13.4375 8.59609 13.8477L12.7563 17.9492L21.5453 9.16016C21.8969 8.75 22.4828 8.75 22.8344 9.16016L24.182 10.4492C24.5336 10.8008 24.5336 11.4453 24.182 11.7969L13.4008 22.5781Z" fill="#F8B833"/>
</svg>
