<svg width="24" height="24" viewBox="0 0 24 24" fill="none" xmlns="http://www.w3.org/2000/svg">
<path d="M12.0053 21.7511C8.29735 21.7514 4.8781 19.6267 3.24048 16.2824C1.58335 12.8973 2.0851 8.67557 4.4896 5.7772C6.89148 2.88182 10.7963 1.61845 14.4368 2.55857C14.8377 2.66207 15.0788 3.0712 14.9757 3.47245C14.8722 3.8737 14.4627 4.11445 14.0618 4.01132C10.9823 3.21595 7.6771 4.2847 5.64423 6.73532C3.61023 9.18745 3.18573 12.7593 4.58785 15.6236C5.98473 18.4766 9.0661 20.3351 12.2288 20.2488C15.3912 20.1626 18.2611 18.2392 19.5402 15.3491C20.2913 13.6518 20.4503 11.7299 19.9872 9.93707C19.8837 9.5362 20.1248 9.12707 20.5261 9.0232C20.9262 8.91932 21.3361 9.16082 21.44 9.56207C21.9867 11.6804 21.7996 13.9514 20.9123 15.9562C19.4003 19.3724 16.0077 21.6461 12.2701 21.7481C12.1816 21.7499 12.0931 21.7511 12.0053 21.7511Z" fill="#F8B833"/>
<path d="M11.9999 14.3398C11.8079 14.3398 11.6159 14.2667 11.4697 14.12C11.1768 13.8272 11.1768 13.3524 11.4697 13.0595L20.4697 4.0595C20.7622 3.76663 21.2377 3.76663 21.5302 4.0595C21.823 4.35238 21.823 4.82713 21.5302 5.12L12.5302 14.12C12.3839 14.2663 12.1919 14.3398 11.9999 14.3398Z" fill="#F8B833"/>
<path d="M12.0001 14.34C11.8081 14.34 11.6161 14.2669 11.4699 14.1202L8.28802 10.9384C7.99514 10.6455 7.99514 10.1707 8.28802 9.87786C8.58052 9.58498 9.05602 9.58498 9.34852 9.87786L12.5304 13.0597C12.8233 13.3526 12.8233 13.8274 12.5304 14.1202C12.3841 14.2665 12.1921 14.34 12.0001 14.34Z" fill="#F8B833"/>
</svg>
