<svg width="683" height="656" viewBox="0 0 683 656" fill="none" xmlns="http://www.w3.org/2000/svg">
<path d="M114.933 1.7999C101.733 3.7999 82.9333 10.3332 71.4666 17.1332C51.8666 28.5999 32.1333 50.7332 22.6666 71.5332C10.4 98.4666 8.66663 131.533 17.8666 158.733C23.0666 173.933 28.9333 184.2 32.8 185.133C37.8666 186.467 43.0666 184.2 45.0666 179.8C46.8 176.467 46.5333 175.267 42.2666 165.933C35.2 150.2 33.2 142.333 32.4 126.333C30.1333 78.4665 59.7333 37.5332 106.267 24.0666C116.667 20.9999 116.8 20.9999 214.667 20.9999H312.667L323.2 24.0666C341.333 29.2666 353.733 36.5999 367.467 50.3332C378.267 60.9999 380.533 64.0666 386.4 76.3332C390.133 84.0666 394.133 94.5999 395.2 99.9332C399.6 119.667 397.067 144.467 388.933 162.2C387.2 165.933 376.667 184.467 365.6 203.4C351.867 226.733 345.333 239 345.333 241.667C345.333 244.733 347.6 248.2 355.467 256.6C384.267 287.933 400.8 325.133 405.467 369C408.933 401.533 401.733 441 387.333 469.667L382.533 479.133L368.267 478.733L354 478.333L353.333 454.333C352.667 431.133 352.533 430.067 348.8 422.333C335.067 394.467 300.533 385.267 274.933 402.6C268 407.4 259.867 416.867 257.467 423.267L256.133 426.733L245.333 421.267C235.2 416.067 233.733 415.667 223.6 415.667C201.2 415.667 184.4 427 175.333 448.067C172.933 453.8 172.667 457.933 172.267 500.067L171.867 545.667H146.933C103.867 545.667 97.4666 543.533 76 521.8C48.8 494.6 32.2666 463.4 23.7333 423.8C19.8666 405.667 19.6 369.533 23.2 351.667C28.2666 325.933 37.6 302.333 50.6666 282.333C57.6 271.8 72.4 253.4 79.2 247.133C84.8 241.933 83.8666 237.267 73.8666 220.067C69.0666 211.8 63.8666 203.933 62.4 202.6C58.8 199.533 54.5333 199.667 50.1333 203.133C44.9333 207.133 45.6 211.8 53.3333 224.867C56.9333 231.133 60 236.6 60 237C60 237.533 56.1333 242.467 51.3333 247.933C-20.2667 331.533 -16.4 455.267 60.1333 534.333C75.6 550.333 85.7333 557.267 100 561.933C107.467 564.333 112.933 564.733 140.133 565.4L171.6 565.933L172.267 581C172.8 593.4 173.6 597.267 176.4 603.533C185.467 623.267 201.6 633.8 222.667 633.8C233.467 633.8 241.6 631.533 249.6 626.333C252.4 624.467 254.933 623 255.333 623C255.6 623 257.467 625.8 259.2 629.4C262.933 636.6 273.2 646.867 280.8 650.733C305.2 663.133 336.667 652.2 349.067 627C352.533 619.933 352.667 618.6 353.067 595.267L353.6 571H427.467H501.333V591C501.333 610.6 501.467 611.267 504.667 614.333C508.8 618.6 513.867 618.6 518 614.333L521.333 611.133V524.067C521.333 442.067 521.6 436.733 523.867 431.667C534.267 409.4 564.533 407.4 577.067 428.333L581.333 435.533V524.333C581.333 607.533 581.067 613.267 578.8 618.467C574.4 628.2 562 636.333 551.467 636.333C549.6 636.333 544.4 635.133 540 633.533C530 630.067 526 630.867 523.2 636.867C521.2 640.867 521.2 641.533 523.2 645.4C526.4 651.533 537.467 655.4 552 655.533C562 655.667 564.4 655.133 572 651.533C581.733 646.867 590.4 638.867 595.6 629.8C597.6 626.467 599.333 623.533 599.467 623.267C599.6 623 602 624.333 604.933 626.2C612.933 631.533 621.067 633.8 632 633.8C654.8 633.933 673.2 620.6 680 599.133C682.533 591.133 682.667 587 682.667 525C682.667 462.733 682.533 458.867 680 450.467C675.467 435.933 663.067 423 648.667 418.067C638 414.333 622.533 414.867 612.667 419.4C608.267 421.533 603.733 424.067 602.4 425.267C599.6 427.8 599.867 427.933 596 420.467C591.867 412.2 581.867 402.733 572.8 398.467C551.867 388.6 524.933 395.133 511.467 413.533C502.933 425.267 502.267 427.933 501.6 454.6L501.067 479H453.867C425.2 479 406.667 478.467 406.667 477.8C406.667 477 408.8 471.4 411.2 465.133C422.933 436.333 428.4 399 425.6 369.533C423.467 349 420.933 336.467 415.333 319.533C407.067 294.733 390.933 266.2 374.8 248.067C371.067 243.933 368 240.2 368 239.667C368 239.133 376.267 224.6 386.4 207.267C414 160.067 416.667 152.333 416.667 121.667C416.667 104.2 416.133 99.3999 413.6 90.5999C401.067 46.9999 369.2 15.3999 326.4 4.06657C315.6 1.13323 313.467 1.13323 219.333 0.866567C165.467 0.733234 119.6 1.13323 114.933 1.7999ZM319.467 418.467C324.133 421.267 326.933 424.333 329.6 429.533L333.333 436.6V524.867C333.333 624.467 333.867 619.133 322.667 628.6C310.4 639.133 292.4 638.067 281.067 626.067C273.067 617.8 273.333 620.467 273.333 525C273.333 428.6 273.067 432.333 281.733 423.133C291.733 412.6 307.067 410.733 319.467 418.467ZM238 439.533C244.933 443.667 248.933 449 251.467 457.267C253.867 465.267 254.133 582.467 251.867 591.667C250 598.867 242.8 607.533 235.6 611.133C219.2 619.533 197.333 609 193.333 590.867C192.267 585.8 192 565 192.267 520.333L192.667 457L196.4 450.733C205.067 435.933 223.333 431 238 439.533ZM646.267 438.867C652.933 442.2 657.733 447.8 660.533 455.267C662.533 460.333 662.667 468.467 662.4 527L662 593L658.4 599.133C648.267 616.467 624 619.267 610.533 604.733C601.6 595.267 602 598.467 602 525C602 450.6 601.6 453.8 611.6 443.8C620.533 435 634.667 432.867 646.267 438.867ZM501.333 525V551H427.333H353.333V525V499H427.333H501.333V525Z" fill="#F8BA04"/>
<path d="M117.467 75.7998C100.4 81.7998 88.2666 96.4665 85.3332 114.6C83.9999 122.6 85.5999 134.466 88.9332 141C96.6666 155.933 125.067 203 128.4 206.066C132.933 210.466 132.667 210.466 149.867 204.333C172.4 196.333 184.533 194.466 212.667 194.466C241.333 194.333 254.133 196.466 280 205.533C287.733 208.2 295.333 210.2 296.933 209.933C298.667 209.666 301.067 207.933 302.4 205.933C307.6 198.466 337.867 146.066 341.2 139C345.6 129.4 345.733 115.133 341.467 104.333C337.6 94.1998 327.2 82.7332 317.6 78.0665L310 74.3332L216.667 74.0665C134.933 73.7998 122.533 74.0665 117.467 75.7998ZM307.733 95.6665C320.4 101 327.467 115.666 323.467 128.466C322 133.533 293.867 182.866 290.667 186.2C290 186.866 285.2 185.933 279.067 183.933C256.267 176.466 242.933 174.466 213.333 174.466C184.133 174.466 172 176.066 148.533 183.533L138.667 186.733L133.067 177.133C130 171.933 122.8 159.666 117.067 149.8C111.333 140.066 106.133 129.933 105.6 127.133C103.067 115.533 109.333 102.333 119.867 96.7332L125.733 93.6665H214.267C291.067 93.6665 303.467 93.9332 307.733 95.6665Z" fill="#F8BA04"/>
</svg>
