<svg xmlns="http://www.w3.org/2000/svg" version="1.1" xmlns:xlink="http://www.w3.org/1999/xlink" xmlns:svgjs="http://svgjs.dev/svgjs" viewBox="0 0 800 800"><defs><linearGradient x1="50%" y1="0%" x2="50%" y2="100%" id="ffflurry-grad" gradientTransform="rotate(270)"><stop stop-color="transparent" stop-opacity="1" offset="0%"></stop><stop stop-color="hsl(55, 94%, 54%)" stop-opacity="1" offset="45%"></stop><stop stop-color="hsl(37, 91%, 55%)" stop-opacity="1" offset="100%"></stop></linearGradient></defs><rect width="100%" height="100%" fill="transparent"></rect><g fill="url(#ffflurry-grad)"><rect width="565" height="1" x="-107.5" y="745.5" rx="0.5" transform="rotate(36, 175, 746)" opacity="0.91"></rect><rect width="176" height="1" x="603" y="498.5" rx="0.5" transform="rotate(36, 691, 499)" opacity="0.26"></rect><rect width="201" height="1" x="-19.5" y="346.5" rx="0.5" transform="rotate(36, 81, 347)" opacity="0.96"></rect><rect width="814" height="1" x="-164" y="87.5" rx="0.5" transform="rotate(36, 243, 88)" opacity="0.53"></rect><rect width="651" height="1" x="31.5" y="695.5" rx="0.5" transform="rotate(36, 357, 696)" opacity="0.88"></rect><rect width="112" height="1" x="632" y="296.5" rx="0.5" transform="rotate(36, 688, 297)" opacity="0.08"></rect><rect width="927" height="1" x="-63.5" y="548.5" rx="0.5" transform="rotate(36, 400, 549)" opacity="0.78"></rect><rect width="320" height="1" x="-75" y="47.5" rx="0.5" transform="rotate(36, 85, 48)" opacity="0.77"></rect><rect width="555" height="1" x="-210.5" y="172.5" rx="0.5" transform="rotate(36, 67, 173)" opacity="0.24"></rect><rect width="855" height="1" x="65.5" y="375.5" rx="0.5" transform="rotate(36, 493, 376)" opacity="0.52"></rect><rect width="948" height="1" x="-217" y="411.5" rx="0.5" transform="rotate(36, 257, 412)" opacity="0.58"></rect><rect width="754" height="1" x="-281" y="591.5" rx="0.5" transform="rotate(36, 96, 592)" opacity="0.23"></rect><rect width="183" height="1" x="604.5" y="103.5" rx="0.5" transform="rotate(36, 696, 104)" opacity="0.63"></rect><rect width="141" height="1" x="569.5" y="695.5" rx="0.5" transform="rotate(36, 640, 696)" opacity="0.79"></rect><rect width="749" height="1" x="-87.5" y="241.5" rx="0.5" transform="rotate(36, 287, 242)" opacity="0.80"></rect><rect width="1065" height="1" x="-57.5" y="117.5" rx="0.5" transform="rotate(36, 475, 118)" opacity="0.80"></rect></g></svg>