<svg width="517" height="681" viewBox="0 0 517 681" fill="none" xmlns="http://www.w3.org/2000/svg">
<path d="M49.2667 3.13341C43 6.33341 38.2 11.9334 35.8 18.8667C33.9333 24.6001 33.8 93.6667 35.6667 100.333C37.4 106.867 44.4667 114.867 50.8667 117.8C54.6 119.533 59.5333 120.333 66.7333 120.333H77V136.867V153.4L69.4 154.333C37.1333 158.333 9.66665 183.667 2.99999 215.667C0.0666545 229.667 0.0666545 604.333 2.99999 618.333C7.79999 641.533 23.9333 661.933 45.1333 672.067C51.2667 675 59.5333 678.067 63.4 678.867C73.2667 680.867 444.733 680.867 454.6 678.867C458.467 678.067 466.733 675 472.867 672.067C492.2 662.867 507 645 513.933 622.333C516.2 614.733 516.333 604.867 516.333 419C516.333 258.867 516.067 222.333 514.467 216.333C508.067 190.2 487.533 167.4 462.733 159.133C458.2 157.667 451.267 155.933 447.133 155.533L439.667 154.6V138.2V121.667H449.4C456.733 121.667 460.6 120.867 465.667 118.467C473.533 114.867 475.933 112.333 479.533 104.333C482.067 98.7334 482.333 95.6667 482.333 61.6667C482.333 41.5334 481.8 22.8667 481 20.3334C479.267 13.8001 472.2 5.80007 465.8 2.86674C460.6 0.46674 451.933 0.333406 257.667 0.333406H55L49.2667 3.13341ZM460.2 23.2667C462.067 25.8001 462.333 31.5334 462.333 59.6667C462.333 87.8001 462.067 93.5334 460.2 96.0667L458.2 99.0001H258.333C62.0667 99.0001 58.4667 99.0001 57 96.4667C56.2 94.8667 55.6667 80.6001 55.6667 59.5334C55.6667 29.4001 55.9333 24.8667 57.9333 22.7334C59.9333 20.4667 67.9333 20.3334 259.133 20.3334H458.2L460.2 23.2667ZM418.333 138.333V155H258.333H98.3333V138.333V121.667H258.333H418.333V138.333ZM462.6 182.067C479.8 190.467 491.267 205.8 494.2 224.467C495 229.133 495.667 244.6 495.667 258.6V284.333H446.333H396.867L388.6 277.4C351.933 246.867 307.4 231 258.333 231C209.8 231 167.267 245.933 129.933 275.933L119.533 284.333H70.8667H22.0667L22.6 252.6C23 224.067 23.4 220.2 25.9333 213.133C32.0667 197 45.4 184.2 61.9333 179C69.4 176.6 77.2666 176.467 261.133 176.733L452.467 177L462.6 182.067ZM299.667 255.4C330.067 262.6 356.733 276.2 377.667 295.133C382.6 299.533 388.067 303.667 389.8 304.467C391.667 305.133 415.267 305.667 443.8 305.667H494.333V418.333V531H442.867C406.467 531 390.6 531.4 388.6 532.6C387 533.4 382.067 537.4 377.667 541.267C355.8 561.133 327.667 575 295.267 581.933C277.133 585.8 242.2 586.067 224.333 582.467C191 575.8 160.867 561.133 138.2 540.6C134.2 537 129.667 533.4 128.067 532.6C126.067 531.4 109.933 531 73.8 531H22.3333V418.333V305.667H72.8667C101.4 305.667 125 305.133 126.867 304.467C128.6 303.667 133.933 299.667 138.6 295.4C160.2 275.933 189.267 261.267 219.133 255.133C238.2 251.133 238.2 251.133 263 251.667C281.267 252.067 288.333 252.733 299.667 255.4ZM130.067 560.467C156.333 581.8 186.067 595.667 220.333 602.6C238.6 606.2 280.867 605.933 299.133 601.933C332.867 594.6 360.733 581.4 386.6 560.467L398.333 551L445.933 551.267L493.667 551.667L494.067 578.867C494.2 593.8 493.8 609.4 493 613.4C488.867 635.667 470.867 654.333 449.267 658.867C444.333 659.933 387.667 660.333 257.933 660.333C96.6 660.333 72.6 660.067 65.6667 658.333C43.9333 652.6 27.8 635.533 23.6667 613.667C22.2 605.933 21.8 553.267 23.2667 551.933C23.6667 551.4 45.2667 551 71.2667 551H118.467L130.067 560.467Z" fill="#F8BA04"/>
<path d="M273.667 276.333C250.867 279.933 237 289.667 237 301.8C237 306.867 241.8 324.6 244.467 329.933C247.667 336.067 252.6 337.667 273.933 339C284.867 339.667 294.6 340.333 295.8 340.333C298.467 340.333 303 350.467 304.333 359C305.133 364.467 304.733 365.533 301 370.333C295.267 377.533 293 382.2 290.2 391.667C288.733 397 287.4 399.533 286.2 399.133C267.133 394.2 249.533 394.333 234.067 399.533L224.6 402.733L217.133 396.6C205.533 387.133 191.4 381.933 175.8 381.4C169.533 381.133 168.333 381.533 165.533 384.733L162.333 388.467V461.133V533.8L165.667 537C170.2 541.533 175.133 541.267 185.8 535.533C200.6 527.667 208.067 521.933 217.933 510.6L222.067 505.8L233.267 507.8C247.933 510.333 276.067 510.333 289.8 507.667C307.533 504.333 323.267 498.333 339.8 488.867C345.933 485.267 351.533 483 354.2 483C356.467 483 360.333 482.2 362.733 481.133C370.333 477.933 372.867 473.667 376.067 459.533C379.933 441.533 380.2 401.4 376.6 384.333C371.533 360.467 359.667 331.533 346.6 311C336.467 295 324.867 280.6 320.333 278.467C314.733 275.8 285.667 274.467 273.667 276.333ZM311.8 299.267C313.267 301 318.6 308.6 323.8 316.2C339.933 339.933 350.067 364.2 355.133 390.467C357.8 404.6 357.933 435.667 355.4 451L353.667 461L347 461.8C342.733 462.333 338.067 464.2 334.2 466.733C301.8 488.733 265.667 494.6 224.733 484.733C213.267 481.933 209.4 483.4 203.533 492.467C199.4 498.867 185.933 512.333 183.533 512.333C182.867 512.333 182.333 490.067 182.333 457.8V403.267L187.4 404.6C193.8 406.333 201.4 410.2 203.533 412.867C205 414.6 205 415.8 203.667 418.867C201.533 424.067 204.2 429.533 209.8 431.8C214.333 433.667 215.8 433.133 228.467 424.6C246.2 412.733 270.733 413.133 295.933 425.8C305.4 430.6 310.733 430.733 315 426.333C319.8 421.667 319.4 415.8 314.2 411C310.2 407.4 309.933 406.733 310.733 400.333C311.533 393.8 314.2 388.067 321.667 377.933C323.4 375.4 325.267 370.733 325.8 367.267C326.867 360.333 324.6 345.933 321.4 339.933C319.533 336.2 319.533 335.533 321.533 332.2C328.067 321.133 317.4 308.867 307.667 316.2C303.933 318.867 302.733 319 286.067 318.2C262.2 317.267 263 317.533 260.467 310.067C259.267 306.733 258.333 303.667 258.333 303.4C258.333 303.133 261 301.667 264.333 300.2C272.6 296.6 283.667 295 297.4 295.8C307.667 296.2 309.533 296.733 311.8 299.267Z" fill="#F8BA04"/>
</svg>
