<svg width="617" height="683" viewBox="0 0 617 683" fill="none" xmlns="http://www.w3.org/2000/svg">
<path d="M10.8666 2.93349C8.19997 4.40016 4.7333 8.00016 3.1333 10.6668C0.333302 15.7335 0.333302 16.1335 0.333302 136.533V257.467L3.66664 260.667C5.39997 262.533 8.46664 264 10.3333 264C12.2 264 15.2666 262.533 17 260.667L20.3333 257.467V138.667V20.0002H233.667H447V232.933V445.733L441.533 450.4C438.2 453.2 434.467 458.533 432.2 463.2C428.333 471.333 428.333 471.467 428.333 497.6V524H337.8H247.133L246.733 496.933C246.333 470.533 246.2 469.867 242.6 462.4C231.533 440 202.6 433.2 182.733 448.4L176.867 452.933L171 448.4C151.133 433.067 122.867 440 110.733 463.067C108.2 467.733 107.667 471.6 107 486.667L106.333 504.667L94.3333 505.333C76.8666 506.4 67.8 512 61.8 525.333C59.4 530.667 59 534.133 59 554.933V578.667H39.6666H20.3333V438.133C20.3333 298.133 20.3333 297.733 17.5333 294.133C13.8 289.333 6.86664 289.333 3.1333 294.133C0.333302 297.733 0.333302 298 0.333302 440.267C0.333302 598.133 -0.200032 588.533 8.86664 595.067C12.7333 597.867 14.6 598 38.0666 598.4C51.8 598.667 63 599.333 63 600C63 602.533 71.5333 610.933 76.8666 613.733C80.7333 615.733 85.8 616.8 94.3333 617.333L106.333 618L107 636C107.667 651.067 108.2 654.933 110.733 659.6C122.867 682.667 151.133 689.6 171 674.267L176.867 669.733L182.733 674.267C203.933 690.4 235 681.467 244.333 656.4C246.6 650.133 247 646 247 624V598.667H283H319.133L322.333 595.333C326.067 591.733 326.333 589.733 324.2 584.933C321.533 579.2 318.333 578.667 281.667 578.667H247V561.333V544H337.667H428.333V561.333V578.667H393.133C359.667 578.667 357.8 578.8 354.467 581.467C350.067 584.933 349.667 592 353.667 596C356.2 598.533 358.067 598.667 392.333 598.667H428.333V624.4C428.333 654.133 429.4 658.933 437.933 668.667C451.933 684.533 475.133 686.933 492.333 674.267L498.333 669.867L504.067 674.267C519.933 686.267 542.2 684.8 556.333 670.667C565.533 661.467 567.533 655.467 568.067 635.067L568.6 617.333H579.4C592.6 617.333 601.667 613.733 608.067 605.867C615.4 597.067 616.333 592 616.333 561.333C616.333 530.933 615.4 525.6 608.333 517.067C606.067 514.4 601.267 510.667 597.4 508.8C591.667 505.867 588.6 505.333 579.533 505.333H568.6L568.067 487.733C567.533 467.2 565.533 461.2 556.333 452C542.2 437.867 519.933 436.4 504.067 448.4L498.333 452.8L491 447.6C485.933 444.133 481 442 475.267 440.933L467 439.333V226.533V13.7335L464.067 9.33349C462.333 6.93349 458.867 3.86683 456.333 2.53349C451.933 0.133493 443.4 0.00015972 233.667 0.00015972H15.6666L10.8666 2.93349ZM157.4 463.6C159.267 465.067 162.067 467.867 163.533 469.867C166.333 473.467 166.333 475.067 166.733 559.6C167 643.733 167 645.867 164.333 651.333C157.267 666 136.067 666.133 129.133 651.467C127.267 647.467 127 637.467 127 561.067C127 464.533 126.467 469.2 137.133 462.933C143.4 459.333 152.067 459.6 157.4 463.6ZM216.333 462.8C219.133 464.4 222.6 467.867 224.2 470.667C227 475.6 227 476.533 227 561.2C227 644.267 226.867 646.933 224.333 652C221.267 658 213.667 662.667 207 662.667C200.333 662.667 192.733 658 189.667 652C187.133 646.933 187 644.267 187 561.2C187 476.667 187 475.6 189.8 470.667C195.4 460.8 206.733 457.467 216.333 462.8ZM478.867 463.6C480.6 465.067 483.4 467.867 484.867 469.867C487.667 473.467 487.667 474.667 487.667 561.333C487.667 648.4 487.667 649.2 484.867 652.933C475.533 665.467 459.8 665.733 451.4 653.333L448.333 648.933V561.467C448.333 476.267 448.467 473.867 451 469.6C456.333 460.933 470.867 457.733 478.867 463.6ZM538.733 463.6C540.6 465.067 543.4 467.867 544.867 469.867C547.667 473.467 547.667 475.067 548.067 559.6C548.333 643.733 548.333 645.867 545.667 651.333C538.6 666 517.4 666.133 510.467 651.467C508.6 647.467 508.333 637.467 508.333 561.067C508.333 464.533 507.8 469.2 518.467 462.933C524.733 459.333 533.4 459.6 538.733 463.6ZM107 561.333V597.333H96.8666C87.5333 597.333 86.4666 597.067 82.8666 593.467L79 589.6V561.333V533.067L82.8666 529.2C86.4666 525.6 87.5333 525.333 96.8666 525.333H107V561.333ZM590.467 527.733C595.8 532 596.333 534.933 596.333 561.333C596.333 577.467 595.8 587.867 594.867 589.733C591.8 595.6 588.2 597.333 578.067 597.333H568.333V561.333V525.333H578.067C585.133 525.333 588.467 526 590.467 527.733Z" fill="#F8BA04"/>
<path d="M138.867 135.733C136.333 138.533 126.2 150.8 116.467 163.067L98.4666 185.333L91.6666 178.667C84.0666 171.2 78.4666 169.867 73.6666 174.667C69.5333 178.8 70.3333 184.533 75.9333 190.933C89.2666 206.4 94.2 210.667 98.3333 210.667C100.6 210.667 103.4 209.867 104.6 208.933C105.667 208.133 118.2 193.067 132.2 175.6C148.6 155.067 157.667 142.667 157.667 140.8C157.667 135.6 152.733 130.667 147.667 130.667C144.333 130.667 142.333 131.733 138.867 135.733Z" fill="#F8BA04"/>
<path d="M203.8 146.8C199.4 150.267 199 157.333 203 161.333C205.667 164 207.4 164 299.667 164C391.933 164 393.667 164 396.333 161.333C400.333 157.333 399.933 150.267 395.533 146.8C392.067 144 391 144 299.667 144C208.333 144 207.267 144 203.8 146.8Z" fill="#F8BA04"/>
<path d="M207 191.6C200.067 194.133 197.933 202.933 203 208C205.667 210.667 207.4 210.667 299.667 210.667C391.933 210.667 393.667 210.667 396.333 208C399.667 204.667 399.8 198.533 396.467 194.533L393.933 191.333L301.4 191.067C250.6 190.933 208.067 191.2 207 191.6Z" fill="#F8BA04"/>
<path d="M143.667 273.467C142.067 274.267 131.267 286.8 119.667 301.467L98.3333 328L92.3333 321.333C85 313.333 80.0667 311.733 74.6 316C71.9333 318.133 71 320 71 323.2C71 326.8 73 329.867 81.9333 339.867C93 352.4 96.8667 354.667 102.2 352.267C105.4 350.8 154.067 291.467 156.6 286C158.6 281.467 156.867 276.4 152.333 274C147.933 271.733 147.4 271.733 143.667 273.467Z" fill="#F8BA04"/>
<path d="M203 289.333C199 293.333 199.4 300.4 203.8 303.867C207.267 306.667 208.333 306.667 299.667 306.667C391 306.667 392.067 306.667 395.533 303.867C399.933 300.4 400.333 293.333 396.333 289.333C393.667 286.667 391.933 286.667 299.667 286.667C207.4 286.667 205.667 286.667 203 289.333Z" fill="#F8BA04"/>
<path d="M203.267 336.4C199.133 340.8 199.4 347.067 203.8 350.533C207.267 353.333 208.333 353.333 299.667 353.333C391 353.333 392.067 353.333 395.533 350.533C400.067 346.933 400.333 340.267 395.933 336.267L392.867 333.333H299.533H206.067L203.267 336.4Z" fill="#F8BA04"/>
</svg>
