<svg width="167" height="237" viewBox="0 0 167 237" fill="none" xmlns="http://www.w3.org/2000/svg">
<g clip-path="url(#clip0_11_1165)">
<path d="M166.499 0.6875V88.9004L160.861 93.8011V5.87649L166.499 0.6875Z" fill="#FFC107"/>
<path d="M153.031 13.0834V101.009L147.707 106.198V17.9841L153.031 13.0834Z" fill="#FFC107"/>
<path d="M139.877 25.1911V113.404L134.24 118.304V30.3801L139.877 25.1911Z" fill="#FFC107"/>
<path d="M126.408 37.587V125.799L120.771 130.701V42.776L126.408 37.587Z" fill="#FFC107"/>
<path d="M112.942 49.9829V137.908L107.617 143.097V54.8836L112.942 49.9829Z" fill="#FFC107"/>
<path d="M99.7861 62.0906V150.304L94.1484 155.493V67.2796L99.7861 62.0906Z" fill="#FFC107"/>
<path d="M86.3193 74.4865V162.7L80.6816 167.601V79.6755L86.3193 74.4865Z" fill="#FFC107"/>
<path d="M72.8506 86.8825V174.808L67.2129 179.997V92.0715L72.8506 86.8825Z" fill="#FFC107"/>
<path d="M59.3831 99.2784V187.203L54.0586 192.392V104.179L59.3831 99.2784Z" fill="#FFC107"/>
<path d="M46.2276 111.387V199.599L40.5898 204.5V116.576L46.2276 111.387Z" fill="#FFC107"/>
<path d="M32.7608 123.783V211.995L27.123 216.895V128.971L32.7608 123.783Z" fill="#FFC107"/>
<path d="M19.2933 136.177V224.102L13.9688 229.291V141.078L19.2933 136.177Z" fill="#FFC107"/>
<path d="M6.13773 148.286V236.499L0.5 241.688V153.475L6.13773 148.286Z" fill="#FFC107"/>
</g>
<defs>
<clipPath id="clip0_11_1165">
<rect width="166" height="241" fill="white" transform="translate(0.5 0.6875)"/>
</clipPath>
</defs>
</svg>
